<svg id="Grupo_1143903" data-name="Grupo 1143903" xmlns="http://www.w3.org/2000/svg" xmlns:xlink="http://www.w3.org/1999/xlink" width="150.564" height="150.564" viewBox="0 0 150.564 150.564">
  <defs>
    <clipPath id="clip-path">
      <rect id="Rectángulo_405256" data-name="Rectángulo 405256" width="150.564" height="150.564" fill="none"/>
    </clipPath>
    <clipPath id="clip-path-3">
      <rect id="Rectángulo_405250" data-name="Rectángulo 405250" width="84.571" height="84.803" fill="none"/>
    </clipPath>
    <clipPath id="clip-path-4">
      <rect id="Rectángulo_405251" data-name="Rectángulo 405251" width="62.833" height="61.49" fill="none"/>
    </clipPath>
    <clipPath id="clip-path-5">
      <rect id="Rectángulo_405254" data-name="Rectángulo 405254" width="84.572" height="84.803" fill="none"/>
    </clipPath>
    <clipPath id="clip-path-6">
      <rect id="Rectángulo_405252" data-name="Rectángulo 405252" width="28.066" height="28.067" fill="none"/>
    </clipPath>
    <clipPath id="clip-path-7">
      <rect id="Rectángulo_405253" data-name="Rectángulo 405253" width="61.491" height="62.832" fill="none"/>
    </clipPath>
  </defs>
  <g id="Grupo_1143902" data-name="Grupo 1143902" clip-path="url(#clip-path)">
    <g id="Grupo_1143901" data-name="Grupo 1143901" transform="translate(0 0)">
      <g id="Grupo_1143900" data-name="Grupo 1143900" clip-path="url(#clip-path)">
        <path id="Trazado_979149" data-name="Trazado 979149" d="M23.957,4.11a14.033,14.033,0,1,1-19.846,0,14.035,14.035,0,0,1,19.846,0" transform="translate(0.001 0)" fill="#ffdd32"/>
        <path id="Trazado_979150" data-name="Trazado 979150" d="M16.065,15.439C10.927,20.577,5.214,45.154,14.59,59.19s33.838,17.528,48.3,3.07C78.032,47.113,73.95,24.3,58.8,14.978c-13.772-8.476-37.844-4.431-42.736.461" transform="translate(12.397 13.023)" fill="#ffdd32"/>
        <g id="Grupo_1143887" data-name="Grupo 1143887" transform="translate(0 65.76)" style="mix-blend-mode: multiply;isolation: isolate">
          <g id="Grupo_1143886" data-name="Grupo 1143886">
            <g id="Grupo_1143885" data-name="Grupo 1143885" clip-path="url(#clip-path-3)">
              <path id="Trazado_979151" data-name="Trazado 979151" d="M4.109,57.5a14.033,14.033,0,1,1,0,19.846,14.033,14.033,0,0,1,0-19.846" transform="translate(0 3.351)" fill="#01a6b9"/>
              <path id="Trazado_979152" data-name="Trazado 979152" d="M15.44,85c5.135,5.138,29.712,10.851,43.75,1.475s17.528-33.838,3.07-48.3C47.114,23.035,24.3,27.117,14.976,42.266,6.5,56.038,10.546,80.11,15.44,85" transform="translate(13.022 -28.659)" fill="#01a6b9"/>
            </g>
          </g>
        </g>
        <path id="Trazado_979153" data-name="Trazado 979153" d="M57.5,77.343a14.033,14.033,0,1,1,19.846,0,14.035,14.035,0,0,1-19.846,0" transform="translate(69.109 69.112)" fill="#da2308"/>
        <g id="Grupo_1143890" data-name="Grupo 1143890" transform="translate(65.759 65.993)" style="mix-blend-mode: multiply;isolation: isolate">
          <g id="Grupo_1143889" data-name="Grupo 1143889">
            <g id="Grupo_1143888" data-name="Grupo 1143888" clip-path="url(#clip-path-4)">
              <path id="Trazado_979154" data-name="Trazado 979154" d="M85,84.87c5.138-5.135,10.851-29.712,1.475-43.748s-33.838-17.53-48.3-3.072C23.035,53.2,27.117,76.011,42.266,85.334,56.038,93.808,80.11,89.765,85,84.87" transform="translate(-28.659 -28.76)" fill="#da2308"/>
            </g>
          </g>
        </g>
        <g id="Grupo_1143899" data-name="Grupo 1143899" transform="translate(65.992 0.002)" style="mix-blend-mode: multiply;isolation: isolate">
          <g id="Grupo_1143898" data-name="Grupo 1143898">
            <g id="Grupo_1143897" data-name="Grupo 1143897" clip-path="url(#clip-path-5)">
              <g id="Grupo_1143893" data-name="Grupo 1143893" transform="translate(56.505)" style="mix-blend-mode: multiply;isolation: isolate">
                <g id="Grupo_1143892" data-name="Grupo 1143892">
                  <g id="Grupo_1143891" data-name="Grupo 1143891" clip-path="url(#clip-path-6)">
                    <path id="Trazado_979155" data-name="Trazado 979155" d="M77.343,23.957a14.033,14.033,0,1,1,0-19.846,14.035,14.035,0,0,1,0,19.846" transform="translate(-53.386 -0.001)" fill="#fead30"/>
                  </g>
                </g>
              </g>
              <g id="Grupo_1143896" data-name="Grupo 1143896" transform="translate(0 21.971)" style="mix-blend-mode: multiply;isolation: isolate">
                <g id="Grupo_1143895" data-name="Grupo 1143895">
                  <g id="Grupo_1143894" data-name="Grupo 1143894" clip-path="url(#clip-path-7)">
                    <path id="Trazado_979156" data-name="Trazado 979156" d="M84.87,16.065C79.735,10.927,55.156,5.214,41.122,14.59s-17.53,33.838-3.072,48.3C53.2,78.032,76.011,73.95,85.332,58.8c8.476-13.772,4.433-37.844-.461-42.736" transform="translate(-28.76 -9.575)" fill="#fead30"/>
                  </g>
                </g>
              </g>
            </g>
          </g>
        </g>
      </g>
    </g>
  </g>
</svg>
