<svg xmlns="http://www.w3.org/2000/svg" xmlns:xlink="http://www.w3.org/1999/xlink" width="142.553" height="149.18" viewBox="0 0 142.553 149.18">
  <defs>
    <clipPath id="clip-path">
      <rect id="Rectángulo_405249" data-name="Rectángulo 405249" width="142.553" height="149.18" fill="none"/>
    </clipPath>
  </defs>
  <g id="Grupo_1143881" data-name="Grupo 1143881" transform="translate(0 0)">
    <g id="Grupo_1143880" data-name="Grupo 1143880" transform="translate(0 0)" clip-path="url(#clip-path)">
      <path id="Trazado_979123" data-name="Trazado 979123" d="M112.06,41.327H22.551a18.232,18.232,0,1,0,0,36.464H130.293V41.327Z" transform="translate(7.286 69.73)" fill="#313a52"/>
      <path id="Trazado_979124" data-name="Trazado 979124" d="M112.06,27.757H4.318V64.224H112.06a18.233,18.233,0,0,0,0-36.467" transform="translate(7.286 46.834)" fill="#57606f"/>
      <path id="Trazado_979125" data-name="Trazado 979125" d="M45.065.617a4.973,4.973,0,1,1-4.971,4.974A4.973,4.973,0,0,1,45.065.617" transform="translate(67.65 1.041)" fill="#d7deed"/>
      <path id="Trazado_979126" data-name="Trazado 979126" d="M54.547,14.187a8.288,8.288,0,1,1-8.285,8.288,8.291,8.291,0,0,1,8.285-8.288" transform="translate(78.058 23.937)" fill="#d7deed"/>
      <path id="Trazado_979127" data-name="Trazado 979127" d="M7.247,15.42a6.63,6.63,0,1,1-6.63,6.632,6.638,6.638,0,0,1,6.63-6.632" transform="translate(1.041 26.018)" fill="#d7deed"/>
      <path id="Trazado_979128" data-name="Trazado 979128" d="M28.494,1.267a4.48,4.48,0,0,1,4.472,4.8L30.837,19.495A16.76,16.76,0,0,0,28.41,22.91a16.808,16.808,0,0,0-2.22-3.184v-.005L24.027,6.067a4.478,4.478,0,0,1,4.466-4.8" transform="translate(40.521 2.138)" fill="#747371"/>
      <path id="Trazado_979129" data-name="Trazado 979129" d="M60.745,5.977c32.331,0,10.905,58.529-6.882,58.529a21.573,21.573,0,0,1-5.057-.916,11.809,11.809,0,0,0-6.339,0,21.6,21.6,0,0,1-5.055.916C19.624,64.506-1.8,5.977,30.526,5.977a17.2,17.2,0,0,1,12.888,5.8v.005a16.566,16.566,0,0,1,2.22,3.184,16.76,16.76,0,0,1,2.427-3.416A17.184,17.184,0,0,1,60.745,5.977m3.811,38.638a3.313,3.313,0,1,0-3.316,3.316,3.316,3.316,0,0,0,3.316-3.316" transform="translate(23.298 10.085)" fill="#e64c42"/>
      <path id="Trazado_979130" data-name="Trazado 979130" d="M50.811,4.318a3.315,3.315,0,1,1-3.316,3.313,3.316,3.316,0,0,1,3.316-3.313" transform="translate(80.138 7.285)" fill="#fff"/>
      <path id="Trazado_979131" data-name="Trazado 979131" d="M42.174,19.121a3.315,3.315,0,1,1-3.313,3.313,3.315,3.315,0,0,1,3.313-3.313" transform="translate(65.57 32.262)" fill="#fff"/>
      <path id="Trazado_979132" data-name="Trazado 979132" d="M36.008,31.458a3.316,3.316,0,1,1-3.316,3.316,3.317,3.317,0,0,1,3.316-3.316" transform="translate(55.161 53.079)" fill="#fff"/>
      <path id="Trazado_979133" data-name="Trazado 979133" d="M33.537,19.121a3.315,3.315,0,1,1-3.311,3.313,3.316,3.316,0,0,1,3.311-3.313" transform="translate(51 32.262)" fill="#fff"/>
      <path id="Trazado_979134" data-name="Trazado 979134" d="M18.736,48.728a3.316,3.316,0,1,1-3.316,3.316,3.318,3.318,0,0,1,3.316-3.316" transform="translate(26.018 82.218)" fill="#fff"/>
      <path id="Trazado_979135" data-name="Trazado 979135" d="M15.033,1.851A3.315,3.315,0,1,1,11.72,5.164a3.318,3.318,0,0,1,3.313-3.313" transform="translate(19.775 3.123)" fill="#fff"/>
      <path id="Trazado_979136" data-name="Trazado 979136" d="M5.164,5.552A3.315,3.315,0,1,1,1.851,8.868,3.318,3.318,0,0,1,5.164,5.552" transform="translate(3.123 9.368)" fill="#fff"/>
      <path id="Trazado_979137" data-name="Trazado 979137" d="M131.332,80.492H23.591a19.891,19.891,0,0,1,0-39.783,1.659,1.659,0,0,1,0,3.319,16.575,16.575,0,1,0,0,33.15H129.674V44.028H113.1a1.659,1.659,0,0,1,0-3.319h18.233a1.66,1.66,0,0,1,1.658,1.661V78.834a1.657,1.657,0,0,1-1.658,1.658" transform="translate(6.246 68.688)" fill="#fff"/>
      <path id="Trazado_979138" data-name="Trazado 979138" d="M104.275,52.659H21.4a1.657,1.657,0,1,1,0-3.313h82.879a1.657,1.657,0,1,1,0,3.313" transform="translate(33.304 83.261)" fill="#fff"/>
      <path id="Trazado_979139" data-name="Trazado 979139" d="M112.6,48.958H16.462a1.657,1.657,0,1,1,0-3.313H112.6a1.657,1.657,0,1,1,0,3.313" transform="translate(24.979 77.016)" fill="#fff"/>
      <path id="Trazado_979140" data-name="Trazado 979140" d="M113.095,66.923H5.358A1.657,1.657,0,0,1,3.7,65.265V28.8A1.657,1.657,0,0,1,5.358,27.14H113.095a19.891,19.891,0,0,1,0,39.783M7.014,63.607H113.095a16.575,16.575,0,0,0,0-33.15H7.014Z" transform="translate(6.248 45.793)" fill="#fff"/>
      <path id="Trazado_979141" data-name="Trazado 979141" d="M74.98,35.39H5.36a1.658,1.658,0,1,1,0-3.316H74.98a1.658,1.658,0,0,1,0,3.316" transform="translate(6.246 54.118)" fill="#fff"/>
      <path id="Trazado_979142" data-name="Trazado 979142" d="M101.5,39.089H5.36a1.657,1.657,0,1,1,0-3.313H101.5a1.657,1.657,0,0,1,0,3.313" transform="translate(6.246 60.364)" fill="#fff"/>
      <path id="Trazado_979143" data-name="Trazado 979143" d="M27.228,22.42a1.658,1.658,0,0,1-1.637-1.4L23.431,7.366a1.265,1.265,0,0,1-.016-.137,6.137,6.137,0,1,1,12.243,0,1.121,1.121,0,0,1-.019.137L33.511,20.8a1.657,1.657,0,1,1-3.273-.519l2.118-13.35a2.822,2.822,0,1,0-5.638,0L28.867,20.5a1.657,1.657,0,0,1-1.379,1.9,1.7,1.7,0,0,1-.261.019" transform="translate(39.481 1.096)" fill="#fff"/>
      <path id="Trazado_979144" data-name="Trazado 979144" d="M37.871,31.094a1.655,1.655,0,0,1-1.545-2.249c2.134-5.565,2.287-10.943.392-13.694-1.1-1.6-2.859-2.378-5.377-2.378a1.658,1.658,0,0,1,0-3.316c4.536,0,6.912,2.075,8.11,3.816,2.569,3.738,2.558,10-.032,16.758a1.654,1.654,0,0,1-1.548,1.064" transform="translate(50.089 15.955)" fill="#fff"/>
      <path id="Trazado_979145" data-name="Trazado 979145" d="M54.9,67.2a22.206,22.206,0,0,1-5.5-.978,10.223,10.223,0,0,0-5.45,0,22.232,22.232,0,0,1-5.5.978C25.92,67.2,13.19,43.027,13.19,25.645c0-5.947,1.4-10.73,4.155-14.221C20.524,7.4,25.31,5.359,31.566,5.359A18.855,18.855,0,0,1,45.7,11.72a.765.765,0,0,1,.062.07q.484.552.919,1.137a18.276,18.276,0,0,1,1.2-1.454A18.882,18.882,0,0,1,61.787,5.359c6.259,0,11.042,2.042,14.224,6.065,2.754,3.491,4.155,8.271,4.155,14.218C80.165,43.024,67.436,67.2,54.9,67.2m-8.228-4.665a13.584,13.584,0,0,1,3.614.492,18.475,18.475,0,0,0,4.614.86c9.637,0,21.944-21.447,21.944-38.248,0-5.109-1.19-9.314-3.442-12.16-2.518-3.19-6.431-4.808-11.62-4.808a15.571,15.571,0,0,0-11.464,5.036,15.316,15.316,0,0,0-2.185,3.08,1.659,1.659,0,0,1-2.924,0,15.152,15.152,0,0,0-2-2.867l-.051-.064a15.546,15.546,0,0,0-11.6-5.181c-5.192,0-9.1,1.618-11.62,4.808-2.252,2.846-3.44,7.051-3.44,12.163,0,16.8,12.305,38.246,21.947,38.246a18.561,18.561,0,0,0,4.611-.86,13.535,13.535,0,0,1,3.612-.492" transform="translate(22.255 9.042)" fill="#771203"/>
      <path id="Trazado_979146" data-name="Trazado 979146" d="M8.288,31.379a8.288,8.288,0,1,1,8.29-8.288,8.3,8.3,0,0,1-8.29,8.288m0-13.262a4.973,4.973,0,1,0,4.971,4.974,4.978,4.978,0,0,0-4.971-4.974" transform="translate(0 24.978)" fill="#fff"/>
      <path id="Trazado_979147" data-name="Trazado 979147" d="M46.108,13.262a6.631,6.631,0,1,1,6.63-6.63,6.639,6.639,0,0,1-6.63,6.63m0-9.943a3.315,3.315,0,1,0,3.313,3.313,3.319,3.319,0,0,0-3.313-3.313" transform="translate(66.608 0)" fill="#fff"/>
      <path id="Trazado_979148" data-name="Trazado 979148" d="M55.59,33.46a9.944,9.944,0,1,1,9.948-9.946A9.959,9.959,0,0,1,55.59,33.46m0-16.575a6.63,6.63,0,1,0,6.632,6.63,6.634,6.634,0,0,0-6.632-6.63" transform="translate(77.015 22.898)" fill="#fff"/>
    </g>
  </g>
</svg>
