<svg xmlns="http://www.w3.org/2000/svg" xmlns:xlink="http://www.w3.org/1999/xlink" width="108" height="108" viewBox="0 0 108 108">
  <defs>
    <filter id="Trazado_904820" x="0" y="0" width="108" height="108" filterUnits="userSpaceOnUse">
      <feOffset dy="3" input="SourceAlpha"/>
      <feGaussianBlur stdDeviation="3" result="blur"/>
      <feFlood flood-opacity="0.161"/>
      <feComposite operator="in" in2="blur"/>
      <feComposite in="SourceGraphic"/>
    </filter>
  </defs>
  <g id="Grupo_1143790" data-name="Grupo 1143790" transform="translate(-305.927 -885)">
    <g transform="matrix(1, 0, 0, 1, 305.93, 885)" filter="url(#Trazado_904820)">
      <g id="Trazado_904820-2" data-name="Trazado 904820" transform="translate(9 6)" fill="#ecf4fa">
        <path d="M 45 88.5 C 39.12687683105469 88.5 33.43022537231445 87.35007476806641 28.06830024719238 85.08217620849609 C 22.88852500915527 82.89131164550781 18.23629951477051 79.75458526611328 14.2408504486084 75.75914764404297 C 10.24541282653809 71.76370239257812 7.108687400817871 67.11147308349609 4.917825222015381 61.93170166015625 C 2.649924993515015 56.56977462768555 1.5 50.87312316894531 1.5 45 C 1.5 39.12687683105469 2.649924993515015 33.43022537231445 4.917825222015381 28.06830024719238 C 7.108687400817871 22.88852500915527 10.24541282653809 18.23629951477051 14.2408504486084 14.2408504486084 C 18.23629951477051 10.24541282653809 22.88852500915527 7.108687400817871 28.06830024719238 4.917825222015381 C 33.43022537231445 2.649924993515015 39.12687683105469 1.5 45 1.5 C 50.87312316894531 1.5 56.56977462768555 2.649924993515015 61.93170166015625 4.917825222015381 C 67.11147308349609 7.108687400817871 71.76370239257812 10.24541282653809 75.75914764404297 14.2408504486084 C 79.75458526611328 18.23629951477051 82.89131164550781 22.88852500915527 85.08217620849609 28.06830024719238 C 87.35007476806641 33.43022537231445 88.5 39.12687683105469 88.5 45 C 88.5 50.87312316894531 87.35007476806641 56.56977462768555 85.08217620849609 61.93170166015625 C 82.89131164550781 67.11147308349609 79.75458526611328 71.76370239257812 75.75914764404297 75.75914764404297 C 71.76370239257812 79.75458526611328 67.11147308349609 82.89131164550781 61.93170166015625 85.08217620849609 C 56.56977462768555 87.35007476806641 50.87312316894531 88.5 45 88.5 Z" stroke="none"/>
        <path d="M 45 3 C 39.32871246337891 3 33.82865524291992 4.110054016113281 28.65262985229492 6.299339294433594 C 23.65165710449219 8.414573669433594 19.15968322753906 11.44334411621094 15.301513671875 15.301513671875 C 11.44334411621094 19.15968322753906 8.414573669433594 23.65165710449219 6.299339294433594 28.65262985229492 C 4.110054016113281 33.82865524291992 3 39.32871246337891 3 45 C 3 50.67128753662109 4.110054016113281 56.17134475708008 6.299339294433594 61.34737396240234 C 8.414573669433594 66.34834289550781 11.44334411621094 70.84031677246094 15.301513671875 74.698486328125 C 19.15968322753906 78.55665588378906 23.65165710449219 81.58542633056641 28.65262985229492 83.70066070556641 C 33.82865524291992 85.88994598388672 39.32871246337891 87 45 87 C 50.67128753662109 87 56.17134475708008 85.88994598388672 61.34737396240234 83.70066070556641 C 66.34834289550781 81.58542633056641 70.84031677246094 78.55665588378906 74.698486328125 74.698486328125 C 78.55665588378906 70.84031677246094 81.58542633056641 66.34834289550781 83.70066070556641 61.34737396240234 C 85.88994598388672 56.17134475708008 87 50.67128753662109 87 45 C 87 39.32871246337891 85.88994598388672 33.82865524291992 83.70066070556641 28.65262985229492 C 81.58542633056641 23.65165710449219 78.55665588378906 19.15968322753906 74.698486328125 15.301513671875 C 70.84031677246094 11.44334411621094 66.34834289550781 8.414573669433594 61.34737396240234 6.299339294433594 C 56.17134475708008 4.110054016113281 50.67128753662109 3 45 3 M 45 0 C 69.85281372070312 0 90 20.14718627929688 90 45 C 90 69.85281372070312 69.85281372070312 90 45 90 C 20.14718627929688 90 0 69.85281372070312 0 45 C 0 20.14718627929688 20.14718627929688 0 45 0 Z" stroke="none" fill="#2a5673"/>
      </g>
    </g>
    <g id="Layer_38" transform="translate(318.599 904.05)">
      <g id="Grupo_1143789" data-name="Grupo 1143789" transform="translate(12.328 -0.05)">
        <g id="Grupo_1143788" data-name="Grupo 1143788" transform="translate(13.547 48.595)">
          <path id="Trazado_979036" data-name="Trazado 979036" d="M70.76,195.043a2.146,2.146,0,0,0-2.944.7l-.873,1.422a2.14,2.14,0,1,0,3.643,2.245l.873-1.422A2.124,2.124,0,0,0,70.76,195.043Z" transform="translate(-66.624 -194.724)" fill="#f9d0b4"/>
          <path id="Trazado_979037" data-name="Trazado 979037" d="M84.258,201.043a2.146,2.146,0,0,0-2.944.7l-1.871,3.044a2.14,2.14,0,0,0,3.643,2.245l1.871-3.019A2.17,2.17,0,0,0,84.258,201.043Z" transform="translate(-76.006 -199.227)" fill="#f9d0b4"/>
          <path id="Trazado_979038" data-name="Trazado 979038" d="M98.858,210.143a2.146,2.146,0,0,0-2.944.7l-1.871,3.019a2.14,2.14,0,0,0,3.643,2.245l1.871-3.019A2.114,2.114,0,0,0,98.858,210.143Z" transform="translate(-86.963 -206.057)" fill="#f9d0b4"/>
          <path id="Trazado_979039" data-name="Trazado 979039" d="M114.66,222.143a2.146,2.146,0,0,0-2.944.7l-.873,1.422a2.14,2.14,0,1,0,3.643,2.245l.873-1.422a2.124,2.124,0,0,0-.7-2.944Z" transform="translate(-99.571 -215.063)" fill="#f9d0b4"/>
        </g>
        <path id="Trazado_979040" data-name="Trazado 979040" d="M39.476,115.647,36.782,114,27.7,128.82l2.67,1.647a1.54,1.54,0,0,0,2.121-.5l7.485-12.2a1.54,1.54,0,0,0-.5-2.121Z" transform="translate(-23.865 -85.545)" fill="#dae6f1"/>
        <path id="Trazado_979041" data-name="Trazado 979041" d="M181.672,114,179,115.647a1.54,1.54,0,0,0-.5,2.121l7.485,12.2a1.54,1.54,0,0,0,2.121.5l2.67-1.647Z" transform="translate(-136.87 -85.545)" fill="#dae6f1"/>
        <path id="Trazado_979042" data-name="Trazado 979042" d="M117.661,138.6l-7.485-12.2a1.4,1.4,0,0,1-.225-.773c-3.742.973-7.684-.125-11.951-.125-4.616,0-8.832,4.117-10.5,6.686-.8,1.247.948,2.919,2.42,2.794a9.519,9.519,0,0,0,5.564-3.069.612.612,0,0,1,.8-.1,7.927,7.927,0,0,0,6.337,1.173,72.649,72.649,0,0,1,10.429,7.51,2.79,2.79,0,0,1,.748,1.023,17.541,17.541,0,0,0,4.167-2.57,2.171,2.171,0,0,1-.3-.349Z" transform="translate(-68.592 -94.176)" fill="#f9d0b4"/>
        <path id="Trazado_979043" data-name="Trazado 979043" d="M82.477,144.422a70.77,70.77,0,0,0-10.429-7.51,7.909,7.909,0,0,1-6.337-1.173.612.612,0,0,0-.8.1,9.451,9.451,0,0,1-5.564,3.069c-1.472.125-3.243-1.547-2.42-2.794a16.745,16.745,0,0,1,2.994-3.368,18.4,18.4,0,0,1-6.038-2.046l-7.26,11.8a.662.662,0,0,1-.125.15,9.493,9.493,0,0,1,2.67,2.794,18.389,18.389,0,0,0,2.794,3.418l.748-1.2a2.14,2.14,0,1,1,3.643,2.245l.449-.748a2.14,2.14,0,0,1,3.643,2.245,2.14,2.14,0,0,1,3.643,2.245l-.449.748a2.14,2.14,0,0,1,3.643,2.245l-.349.549c4.391,1.746,5.664-1.622,5.664-1.622,4.042,0,3.468-2.969,3.468-2.969,4.291.474,3.343-3.343,3.343-3.343l.225.075A2.9,2.9,0,0,0,82.477,144.422Z" transform="translate(-37.974 -98.079)" fill="#f9d0b4"/>
        <path id="Trazado_979044" data-name="Trazado 979044" d="M26.851,91.038,17.47,85.3,14.8,106.831l1.746,1.073a.982.982,0,0,0,1.347-.324L27.2,92.411A1.049,1.049,0,0,0,26.851,91.038Z" transform="translate(-14.183 -64.006)" fill="#5290db"/>
        <path id="Trazado_979045" data-name="Trazado 979045" d="M200.891,85.3l-9.381,5.738a.994.994,0,0,0-.324,1.347l9.306,15.169a.994.994,0,0,0,1.347.324l1.746-1.073Z" transform="translate(-146.458 -64.006)" fill="#5b5d60"/>
        <path id="Trazado_979046" data-name="Trazado 979046" d="M136.39,8.937l-5.913-5.913a1.8,1.8,0,0,0-2.545,2.545l2.819,2.819H119.1v3.593h11.651L127.932,14.8a1.8,1.8,0,0,0,2.545,2.545l5.913-5.913A1.747,1.747,0,0,0,136.39,8.937Z" transform="translate(-92.461 -1.864)" fill="#fc657e"/>
        <path id="Trazado_979047" data-name="Trazado 979047" d="M83.314,37.05H71.638l2.819-2.819a1.8,1.8,0,0,0-2.52-2.57l-.025.025-5.888,5.888a1.807,1.807,0,0,0,0,2.545l5.913,5.913a1.8,1.8,0,1,0,2.57-2.52l-.025-.025-2.844-2.844H83.289V37.05Z" transform="translate(-52.234 -23.365)" fill="#70d6f9"/>
        <path id="Trazado_979048" data-name="Trazado 979048" d="M203.412,56.866a1.945,1.945,0,0,1-1.547-1.522c0-.025-.075-.025-.075,0a1.945,1.945,0,0,1-1.547,1.522c-.025,0-.025.05,0,.075a1.945,1.945,0,0,1,1.547,1.522c0,.025.075.025.075,0a1.945,1.945,0,0,1,1.547-1.522C203.437,56.94,203.437,56.866,203.412,56.866Z" transform="translate(-153.346 -41.509)" fill="#f5c84c"/>
        <path id="Trazado_979049" data-name="Trazado 979049" d="M219.364,208.272h-.6V207.7a.8.8,0,0,0-.773-.8h-.025a.816.816,0,0,0-.8.773v.6h-.574a.8.8,0,0,0-.8.773v.025a.777.777,0,0,0,.748.8h.624v.574a.8.8,0,0,0,.773.8h.025a.816.816,0,0,0,.8-.773v-.6h.574a.8.8,0,0,0,.8-.773v-.025A.816.816,0,0,0,219.364,208.272Z" transform="translate(-165.031 -155.267)" fill="#70d6f9"/>
        <circle id="Elipse_11554" data-name="Elipse 11554" cx="0.848" cy="0.848" r="0.848" transform="translate(40.586 62.186)" fill="#87d147"/>
        <circle id="Elipse_11555" data-name="Elipse 11555" cx="0.848" cy="0.848" r="0.848" transform="translate(16.385 0.012)" fill="#fc657e"/>
        <path id="Trazado_979050" data-name="Trazado 979050" d="M35.228,30.858a2.769,2.769,0,0,1-2.22-2.171c0-.05-.1-.05-.1,0a2.769,2.769,0,0,1-2.22,2.171c-.05,0-.05.075,0,.1a2.769,2.769,0,0,1,2.22,2.171c0,.05.1.05.1,0a2.769,2.769,0,0,1,2.22-2.171C35.278,30.933,35.278,30.858,35.228,30.858Z" transform="translate(-26.079 -21.49)" fill="#f5c84c"/>
        <path id="Trazado_979051" data-name="Trazado 979051" d="M155.418,189.258l-7.16-4.541a.661.661,0,0,0-.873.175.641.641,0,0,0,.175.873l7.16,4.541a.661.661,0,0,0,.873-.175A.619.619,0,0,0,155.418,189.258Z" transform="translate(-113.61 -138.549)"/>
        <path id="Trazado_979052" data-name="Trazado 979052" d="M143.573,204.18l-6.686-4.042a.616.616,0,1,0-.649,1.048l6.686,4.042a.631.631,0,0,0,.848-.2A.608.608,0,0,0,143.573,204.18Z" transform="translate(-105.108 -150.128)"/>
        <path id="Trazado_979053" data-name="Trazado 979053" d="M136.672,220.83l-4.366-2.47a.624.624,0,0,0-.848.249.638.638,0,0,0,.225.848l4.366,2.47a.624.624,0,0,0,.848-.249A.656.656,0,0,0,136.672,220.83Z" transform="translate(-101.675 -163.808)"/>
        <path id="Trazado_979054" data-name="Trazado 979054" d="M69.154,192.564a2.783,2.783,0,0,0-3.817.9l-.873,1.422a2.773,2.773,0,0,0,4.715,2.919l.873-1.422A2.766,2.766,0,0,0,69.154,192.564ZM69,195.732l-.873,1.422a1.523,1.523,0,0,1-2.595-1.6l.873-1.422a1.523,1.523,0,1,1,2.595,1.6Z" transform="translate(-51.148 -144.199)"/>
        <path id="Trazado_979055" data-name="Trazado 979055" d="M82.652,198.664a2.783,2.783,0,0,0-3.817.9l-1.871,3.019a2.773,2.773,0,0,0,4.715,2.919l1.871-3.019A2.778,2.778,0,0,0,82.652,198.664Zm-.15,3.144-1.871,3.019a1.523,1.523,0,0,1-2.595-1.6l1.871-3.019a1.523,1.523,0,1,1,2.595,1.6Z" transform="translate(-60.529 -148.777)"/>
        <path id="Trazado_979056" data-name="Trazado 979056" d="M97.352,207.664a2.783,2.783,0,0,0-3.817.9l-1.871,3.019a2.783,2.783,0,0,0,.9,3.817,2.718,2.718,0,0,0,1.447.424,2.877,2.877,0,0,0,.649-.075,2.823,2.823,0,0,0,1.722-1.247l1.871-3.019A2.789,2.789,0,0,0,97.352,207.664Zm-.175,3.169-1.871,3.019a1.523,1.523,0,0,1-2.595-1.6l1.871-3.019a1.523,1.523,0,0,1,2.595,1.6Z" transform="translate(-71.561 -155.532)"/>
        <path id="Trazado_979057" data-name="Trazado 979057" d="M114.3,221.349a2.779,2.779,0,0,0-3.343-2.071,2.823,2.823,0,0,0-1.722,1.247l-.873,1.422a2.773,2.773,0,1,0,4.715,2.919l.873-1.422A2.693,2.693,0,0,0,114.3,221.349Zm-1.4,1.447-.873,1.422a1.523,1.523,0,1,1-2.595-1.6l.873-1.422a1.523,1.523,0,0,1,2.595,1.6Z" transform="translate(-84.095 -164.502)"/>
        <path id="Trazado_979058" data-name="Trazado 979058" d="M38.02,113.268l-2.67-1.647a.608.608,0,0,0-.848.2l-9.082,14.82a.608.608,0,0,0,.2.848l2.67,1.647a2.253,2.253,0,0,0,1.123.324,3.071,3.071,0,0,0,.5-.05,2.132,2.132,0,0,0,1.347-.973l7.485-12.2A2.155,2.155,0,0,0,38.02,113.268Zm-.349,2.32-7.485,12.2a.926.926,0,0,1-1.272.3l-2.146-1.322,8.458-13.772,2.146,1.322A.926.926,0,0,1,37.671,115.588Z" transform="translate(-22.085 -83.69)"/>
        <path id="Trazado_979059" data-name="Trazado 979059" d="M189.369,126.64l-9.082-14.82a.613.613,0,0,0-.848-.2l-2.67,1.647a2.155,2.155,0,0,0-.724,2.969l7.485,12.2a2.155,2.155,0,0,0,2.969.724l2.67-1.647a.643.643,0,0,0,.2-.873Zm-3.543,1.447a.931.931,0,0,1-1.272-.3l-7.485-12.2a.931.931,0,0,1,.3-1.272l2.146-1.322,8.433,13.772Z" transform="translate(-134.961 -83.69)"/>
        <path id="Trazado_979060" data-name="Trazado 979060" d="M116.741,136.622a1.614,1.614,0,0,1-.2-.225l-7.485-12.2a1.032,1.032,0,0,1-.125-.474.634.634,0,0,0-.624-.624.316.316,0,0,0-.15.025,21.659,21.659,0,0,1-7.31.15C99.4,123.15,97.929,123,96.382,123c-5.14,0-9.456,4.541-11,6.961a1.968,1.968,0,0,0,.025,2.146,3.342,3.342,0,0,0,2.969,1.6,9.973,9.973,0,0,0,5.963-3.268,8.543,8.543,0,0,0,6.587,1.322,72.789,72.789,0,0,1,10.129,7.31,2.684,2.684,0,0,1,.6.8.626.626,0,0,0,.8.324,17.746,17.746,0,0,0,4.316-2.645.63.63,0,0,0,.1-.873.147.147,0,0,1-.125-.05Zm-4.291,2.245a5.224,5.224,0,0,0-.6-.7,73.008,73.008,0,0,0-10.529-7.585.693.693,0,0,0-.449-.075,7.49,7.49,0,0,1-5.863-1.073,1.2,1.2,0,0,0-1.622.2,8.964,8.964,0,0,1-5.14,2.844,2.1,2.1,0,0,1-1.8-1,.761.761,0,0,1-.05-.823c1.672-2.57,5.713-6.387,9.98-6.387a40.947,40.947,0,0,1,4.341.274,24.233,24.233,0,0,0,7.111-.025,1.524,1.524,0,0,0,.175.349l7.46,12.15a20.8,20.8,0,0,1-3.019,1.846Z" transform="translate(-66.924 -92.3)"/>
        <path id="Trazado_979061" data-name="Trazado 979061" d="M81.05,142a73.007,73.007,0,0,0-10.529-7.585.693.693,0,0,0-.449-.075,7.49,7.49,0,0,1-5.863-1.073,1.2,1.2,0,0,0-1.622.2,8.964,8.964,0,0,1-5.14,2.844,2.1,2.1,0,0,1-1.8-1,.761.761,0,0,1-.05-.823,16.924,16.924,0,0,1,2.869-3.243.626.626,0,0,0,.05-.873.558.558,0,0,0-.374-.2,16.6,16.6,0,0,1-5.813-2,.608.608,0,0,0-.823.225l-7.26,11.851c-.025.025-.05.075-.075.1a.608.608,0,0,0,.1.873c.025,0,.025.025.05.025a8.927,8.927,0,0,1,2.495,2.62,19.739,19.739,0,0,0,2.894,3.543.6.6,0,0,0,.873-.025c.025-.025.05-.075.075-.1l.748-1.2a1.523,1.523,0,1,1,2.595,1.6.616.616,0,0,0,.225.848.631.631,0,0,0,.848-.2l.449-.748a1.532,1.532,0,0,1,2.1-.5,1.555,1.555,0,0,1,.5,2.1.616.616,0,1,0,1.048.649,1.523,1.523,0,1,1,2.595,1.6l-.449.748a.616.616,0,1,0,1.048.649,1.523,1.523,0,0,1,2.595,1.6l-.349.549a.608.608,0,0,0,.2.848c.025.025.075.025.1.05a7.087,7.087,0,0,0,2.57.549,4.672,4.672,0,0,0,1.771-.349,4.322,4.322,0,0,0,1.946-1.771,4.089,4.089,0,0,0,3.069-1.272,3.073,3.073,0,0,0,.649-1.672h.075a2.976,2.976,0,0,0,3.343-3.169,3.439,3.439,0,0,0,3.418-1.722,3.546,3.546,0,0,0-.7-4.466Zm-.4,3.867a2.118,2.118,0,0,1-2.62,1c-.05-.025-.125-.05-.175-.075a.625.625,0,0,0-.848.724,2.58,2.58,0,0,1-.349,2.021,2.626,2.626,0,0,1-2.32.524.621.621,0,0,0-.7.549v.2a1.946,1.946,0,0,1-.349,1.422,3.086,3.086,0,0,1-2.495.823.592.592,0,0,0-.574.4,3.017,3.017,0,0,1-1.472,1.472,3.814,3.814,0,0,1-2.695.025,2.749,2.749,0,0,0-2.844-4.067,2.77,2.77,0,0,0-2.495-3.019,2.353,2.353,0,0,0-1.173.15,1.061,1.061,0,0,0-.05-.274,2.744,2.744,0,0,0-3.343-2.046,3.579,3.579,0,0,0-.848.349,2.76,2.76,0,0,0-4.99-.6l-.324.524a17.851,17.851,0,0,1-2.146-2.769,9.876,9.876,0,0,0-2.37-2.62l6.786-11.053a19.156,19.156,0,0,0,4.466,1.622,15.7,15.7,0,0,0-2.171,2.645,1.968,1.968,0,0,0,.025,2.146,3.342,3.342,0,0,0,2.969,1.6,9.973,9.973,0,0,0,5.963-3.268,8.543,8.543,0,0,0,6.587,1.322,72.787,72.787,0,0,1,10.129,7.31,2.361,2.361,0,0,1,.424,2.969Z" transform="translate(-36.123 -96.127)"/>
        <path id="Trazado_979062" data-name="Trazado 979062" d="M25.32,88.68l-9.381-5.738a.616.616,0,0,0-.848.225.631.631,0,0,0,.2.848l9.381,5.738a.34.34,0,0,1,.125.474L15.49,105.4a.34.34,0,0,1-.474.125l-1.746-1.073a.616.616,0,0,0-.649,1.048h.025l1.746,1.073a1.607,1.607,0,0,0,2.2-.524l9.256-15.169a1.607,1.607,0,0,0-.524-2.2Z" transform="translate(-12.328 -62.171)"/>
        <path id="Trazado_979063" data-name="Trazado 979063" d="M202.3,104.7a.613.613,0,0,0-.848-.2l-1.746,1.073a.335.335,0,0,1-.474-.125l-9.306-15.169a.335.335,0,0,1,.125-.474l9.381-5.738a.616.616,0,1,0-.649-1.048L189.4,88.759a1.585,1.585,0,0,0-.524,2.2l9.306,15.169a1.59,1.59,0,0,0,2.2.524l1.746-1.073A.661.661,0,0,0,202.3,104.7Z" transform="translate(-144.645 -62.226)"/>
        <path id="Trazado_979064" data-name="Trazado 979064" d="M135.013,6.574,129.125.661a2.417,2.417,0,1,0-3.418,3.418l1.771,1.771H117.324a.624.624,0,0,0,0,1.247h11.651a.618.618,0,0,0,.624-.624.717.717,0,0,0-.175-.449L126.6,3.206a1.205,1.205,0,0,1,0-1.672,1.205,1.205,0,0,1,1.672,0l5.863,5.913a1.205,1.205,0,0,1,0,1.672l-5.888,5.913a1.164,1.164,0,0,1-2-.823,1.091,1.091,0,0,1,.349-.823l2.819-2.819a.612.612,0,0,0-.449-1.048H117.324a.624.624,0,0,0,0,1.247h10.154l-1.771,1.771a2.409,2.409,0,0,0,0,3.418,2.47,2.47,0,0,0,3.443,0l5.913-5.913a2.517,2.517,0,0,0-.05-3.468Z" transform="translate(-90.66 0.05)"/>
        <path id="Trazado_979065" data-name="Trazado 979065" d="M81.475,38.068H69.8a.618.618,0,0,0-.624.624.717.717,0,0,0,.175.449l2.819,2.819A1.182,1.182,0,1,1,70.5,43.632l-5.863-5.913a1.205,1.205,0,0,1,0-1.672l5.888-5.888a1.182,1.182,0,0,1,1.672,1.672L69.375,34.65a.612.612,0,0,0,.449,1.048H81.475a.624.624,0,0,0,0-1.247H71.321l1.771-1.771a2.426,2.426,0,0,0-3.443-3.418l-5.888,5.913a2.409,2.409,0,0,0,0,3.418l5.913,5.913a2.417,2.417,0,1,0,3.443-3.393l-.025-.025-1.771-1.771H81.475a.618.618,0,0,0,.624-.624.634.634,0,0,0-.624-.624Z" transform="translate(-50.395 -21.414)"/>
      </g>
    </g>
  </g>
</svg>
