<svg xmlns="http://www.w3.org/2000/svg" xmlns:xlink="http://www.w3.org/1999/xlink" width="108" height="108" viewBox="0 0 108 108">
  <defs>
    <filter id="Trazado_904820" x="0" y="0" width="108" height="108" filterUnits="userSpaceOnUse">
      <feOffset dy="3" input="SourceAlpha"/>
      <feGaussianBlur stdDeviation="3" result="blur"/>
      <feFlood flood-opacity="0.161"/>
      <feComposite operator="in" in2="blur"/>
      <feComposite in="SourceGraphic"/>
    </filter>
  </defs>
  <g id="Grupo_1143787" data-name="Grupo 1143787" transform="translate(-201 -2258)">
    <g transform="matrix(1, 0, 0, 1, 201, 2258)" filter="url(#Trazado_904820)">
      <g id="Trazado_904820-2" data-name="Trazado 904820" transform="translate(9 6)" fill="#ecf4fa">
        <path d="M 45 88.5 C 39.12687683105469 88.5 33.43022537231445 87.35007476806641 28.06830024719238 85.08217620849609 C 22.88852500915527 82.89131164550781 18.23629951477051 79.75458526611328 14.2408504486084 75.75914764404297 C 10.24541282653809 71.76370239257812 7.108687400817871 67.11147308349609 4.917825222015381 61.93170166015625 C 2.649924993515015 56.56977462768555 1.5 50.87312316894531 1.5 45 C 1.5 39.12687683105469 2.649924993515015 33.43022537231445 4.917825222015381 28.06830024719238 C 7.108687400817871 22.88852500915527 10.24541282653809 18.23629951477051 14.2408504486084 14.2408504486084 C 18.23629951477051 10.24541282653809 22.88852500915527 7.108687400817871 28.06830024719238 4.917825222015381 C 33.43022537231445 2.649924993515015 39.12687683105469 1.5 45 1.5 C 50.87312316894531 1.5 56.56977462768555 2.649924993515015 61.93170166015625 4.917825222015381 C 67.11147308349609 7.108687400817871 71.76370239257812 10.24541282653809 75.75914764404297 14.2408504486084 C 79.75458526611328 18.23629951477051 82.89131164550781 22.88852500915527 85.08217620849609 28.06830024719238 C 87.35007476806641 33.43022537231445 88.5 39.12687683105469 88.5 45 C 88.5 50.87312316894531 87.35007476806641 56.56977462768555 85.08217620849609 61.93170166015625 C 82.89131164550781 67.11147308349609 79.75458526611328 71.76370239257812 75.75914764404297 75.75914764404297 C 71.76370239257812 79.75458526611328 67.11147308349609 82.89131164550781 61.93170166015625 85.08217620849609 C 56.56977462768555 87.35007476806641 50.87312316894531 88.5 45 88.5 Z" stroke="none"/>
        <path d="M 45 3 C 39.32871246337891 3 33.82865524291992 4.110054016113281 28.65262985229492 6.299339294433594 C 23.65165710449219 8.414573669433594 19.15968322753906 11.44334411621094 15.301513671875 15.301513671875 C 11.44334411621094 19.15968322753906 8.414573669433594 23.65165710449219 6.299339294433594 28.65262985229492 C 4.110054016113281 33.82865524291992 3 39.32871246337891 3 45 C 3 50.67128753662109 4.110054016113281 56.17134475708008 6.299339294433594 61.34737396240234 C 8.414573669433594 66.34834289550781 11.44334411621094 70.84031677246094 15.301513671875 74.698486328125 C 19.15968322753906 78.55665588378906 23.65165710449219 81.58542633056641 28.65262985229492 83.70066070556641 C 33.82865524291992 85.88994598388672 39.32871246337891 87 45 87 C 50.67128753662109 87 56.17134475708008 85.88994598388672 61.34737396240234 83.70066070556641 C 66.34834289550781 81.58542633056641 70.84031677246094 78.55665588378906 74.698486328125 74.698486328125 C 78.55665588378906 70.84031677246094 81.58542633056641 66.34834289550781 83.70066070556641 61.34737396240234 C 85.88994598388672 56.17134475708008 87 50.67128753662109 87 45 C 87 39.32871246337891 85.88994598388672 33.82865524291992 83.70066070556641 28.65262985229492 C 81.58542633056641 23.65165710449219 78.55665588378906 19.15968322753906 74.698486328125 15.301513671875 C 70.84031677246094 11.44334411621094 66.34834289550781 8.414573669433594 61.34737396240234 6.299339294433594 C 56.17134475708008 4.110054016113281 50.67128753662109 3 45 3 M 45 0 C 69.85281372070312 0 90 20.14718627929688 90 45 C 90 69.85281372070312 69.85281372070312 90 45 90 C 20.14718627929688 90 0 69.85281372070312 0 45 C 0 20.14718627929688 20.14718627929688 0 45 0 Z" stroke="none" fill="#2a5673"/>
      </g>
    </g>
    <g id="Grupo_1143786" data-name="Grupo 1143786" transform="translate(227.383 2258.317)">
      <g id="Grupo_1143784" data-name="Grupo 1143784" transform="translate(0.809 28.854)">
        <g id="Grupo_1143783" data-name="Grupo 1143783" transform="translate(0 0)">
          <path id="Trazado_979007" data-name="Trazado 979007" d="M318.685,35.545H303.51L299.238,37.7V49.4l4.272,2.158h6.22a1.079,1.079,0,0,1,.934.539l1.23,2.131,1.151.915a.539.539,0,0,0,.934,0l1.3-3.046a1.079,1.079,0,0,1,.934-.539h2.468a1.618,1.618,0,0,0,1.618-1.618V37.163A1.618,1.618,0,0,0,318.685,35.545Z" transform="translate(-267.765 -35.545)" fill="#bbec6c"/>
          <path id="Trazado_979008" data-name="Trazado 979008" d="M25.373,35.545H9.118A1.618,1.618,0,0,0,7.5,37.163V49.941a1.618,1.618,0,0,0,1.618,1.618h2.468a1.079,1.079,0,0,1,.934.539L14.9,56.224a.539.539,0,0,0,.934,0L18.218,52.1a1.079,1.079,0,0,1,.934-.539h6.22c.385,0,5.45-3.521,5.643-3.187l.553.957Z" transform="translate(-7.5 -35.545)" fill="#cb97e7"/>
          <path id="Trazado_979009" data-name="Trazado 979009" d="M159.81,41.016a2.564,2.564,0,0,1,.632.03.541.541,0,0,0,.641-.529V35.545H143.211v4.972a.541.541,0,0,1-.641.529,2.544,2.544,0,0,0-2.977,2.348,2.545,2.545,0,0,0,2.986,2.662.538.538,0,0,1,.632.531v4.972h5.153a1.079,1.079,0,0,1,.934.539l2.382,4.125a.539.539,0,0,0,.934,0L155,52.1a1.079,1.079,0,0,1,.934-.539h5.153V46.587a.538.538,0,0,0-.632-.531,2.544,2.544,0,1,1-.641-5.041Z" transform="translate(-125.339 -35.545)" fill="#62dbfb"/>
          <g id="Grupo_1143782" data-name="Grupo 1143782" transform="translate(44.13)">
            <path id="Trazado_979010" data-name="Trazado 979010" d="M424.424,35.545h-3.236a1.618,1.618,0,0,1,1.618,1.618V49.941a1.618,1.618,0,0,1-1.618,1.618H418.72a1.079,1.079,0,0,0-.934.539l-1.231,2.131,1.151,1.994a.539.539,0,0,0,.934,0l2.382-4.125a1.079,1.079,0,0,1,.934-.539h2.468a1.618,1.618,0,0,0,1.618-1.618V37.163A1.618,1.618,0,0,0,424.424,35.545Z" transform="translate(-416.555 -35.545)" fill="#97d729"/>
          </g>
          <path id="Trazado_979011" data-name="Trazado 979011" d="M21.56,404.206H8.153a.653.653,0,0,1-.643-.765l1.061-6.077a2.288,2.288,0,0,1,2.254-1.894h8.066a2.288,2.288,0,0,1,2.253,1.894L22.2,403.44A.653.653,0,0,1,21.56,404.206Z" transform="translate(-7.499 -356.64)" fill="#cb97e7"/>
          <path id="Trazado_979012" data-name="Trazado 979012" d="M108.549,403.442l-1.061-6.077a2.288,2.288,0,0,0-2.253-1.894h-2.158a2.288,2.288,0,0,1,2.253,1.894l1.061,6.077a.653.653,0,0,1-.643.765h2.158A.653.653,0,0,0,108.549,403.442Z" transform="translate(-92.766 -356.64)" fill="#af66da"/>
          <path id="Trazado_979013" data-name="Trazado 979013" d="M61.706,354.888a2.3,2.3,0,0,1-2.3-2.3v-6.337H64v6.337A2.3,2.3,0,0,1,61.706,354.888Z" transform="translate(-53.81 -312.734)" fill="#f6a96c"/>
          <path id="Trazado_979014" data-name="Trazado 979014" d="M196.865,404.206H183.458a.653.653,0,0,1-.643-.765l1.061-6.077a2.287,2.287,0,0,1,2.254-1.894h8.066a2.288,2.288,0,0,1,2.254,1.894l1.061,6.077A.653.653,0,0,1,196.865,404.206Z" transform="translate(-163.892 -356.64)" fill="#62dbfb"/>
          <path id="Trazado_979015" data-name="Trazado 979015" d="M283.853,403.442l-1.061-6.077a2.288,2.288,0,0,0-2.254-1.894h-2.158a2.288,2.288,0,0,1,2.254,1.894l1.061,6.077a.653.653,0,0,1-.643.765h2.158A.653.653,0,0,0,283.853,403.442Z" transform="translate(-249.158 -356.64)" fill="#01c0fa"/>
          <path id="Trazado_979016" data-name="Trazado 979016" d="M237.011,354.888a2.3,2.3,0,0,1-2.3-2.3v-6.337h4.593v6.337A2.3,2.3,0,0,1,237.011,354.888Z" transform="translate(-210.202 -312.734)" fill="#f6a96c"/>
          <path id="Trazado_979017" data-name="Trazado 979017" d="M372.17,404.206H358.763a.653.653,0,0,1-.643-.765l1.061-6.077a2.287,2.287,0,0,1,2.254-1.894H369.5a2.288,2.288,0,0,1,2.253,1.894l1.061,6.077A.653.653,0,0,1,372.17,404.206Z" transform="translate(-320.285 -356.64)" fill="#bbec6c"/>
          <path id="Trazado_979018" data-name="Trazado 979018" d="M459.159,403.442l-1.061-6.077a2.288,2.288,0,0,0-2.253-1.894h-2.158a2.287,2.287,0,0,1,2.253,1.894L457,403.442a.653.653,0,0,1-.643.765h2.158A.653.653,0,0,0,459.159,403.442Z" transform="translate(-405.551 -356.64)" fill="#97d729"/>
          <path id="Trazado_979019" data-name="Trazado 979019" d="M412.316,354.888a2.3,2.3,0,0,1-2.3-2.3v-6.337h4.593v6.337A2.3,2.3,0,0,1,412.316,354.888Z" transform="translate(-366.595 -312.734)" fill="#f6a96c"/>
          <path id="Trazado_979020" data-name="Trazado 979020" d="M392.732,294.551a4.721,4.721,0,0,1-1.079-.018,4.667,4.667,0,0,1-3.585-4.539v-1.852c0-2.2,1.53-2.973,3.585-3.46.346-.082.708-1.1,1.079-1.1a4.483,4.483,0,0,1,4.557,4.557v1.852A4.483,4.483,0,0,1,392.732,294.551Z" transform="translate(-347.011 -256.827)" fill="#fed2a4"/>
          <path id="Trazado_979021" data-name="Trazado 979021" d="M422.384,292.585a4.677,4.677,0,0,0-1.079.127c1.815.43,3.219.84,3.524,2.7a4.689,4.689,0,0,1,.062.76v1.852a4.665,4.665,0,0,1-3.586,4.538,4.664,4.664,0,0,0,5.743-4.538v-1.852a4.647,4.647,0,0,0-.422-1.941C425.891,292.623,424.268,292.585,422.384,292.585Z" transform="translate(-376.663 -264.855)" fill="#ffbd86"/>
          <path id="Trazado_979022" data-name="Trazado 979022" d="M396.2,286c-.736-1.607-1.586-2.615-3.47-2.615a4.721,4.721,0,0,0-1.079.018,4.666,4.666,0,0,0-3.585,4.539s2.741,1.674,7.109-.76C395.748,286.864,395.576,286.473,396.2,286Z" transform="translate(-347.011 -256.627)" fill="#a79ba7"/>
          <path id="Trazado_979023" data-name="Trazado 979023" d="M422.384,282.585a4.677,4.677,0,0,0-1.079.127,4.669,4.669,0,0,1,3.523,3.777,15.477,15.477,0,0,0,1.8-1.18A4.664,4.664,0,0,0,422.384,282.585Z" transform="translate(-376.663 -255.934)" fill="#918291"/>
          <path id="Trazado_979024" data-name="Trazado 979024" d="M217.427,294.551a4.722,4.722,0,0,1-1.079-.018,4.667,4.667,0,0,1-3.585-4.539v-1.852c0-2.2,1.53-2.973,3.585-3.46.346-.082.708-1.1,1.079-1.1a4.483,4.483,0,0,1,4.557,4.557v1.852A4.483,4.483,0,0,1,217.427,294.551Z" transform="translate(-190.618 -256.827)" fill="#fed2a4"/>
          <path id="Trazado_979025" data-name="Trazado 979025" d="M247.079,292.585a4.676,4.676,0,0,0-1.079.127c1.814.43,3.219.84,3.524,2.7a4.692,4.692,0,0,1,.062.76v1.852A4.665,4.665,0,0,1,246,302.56a4.664,4.664,0,0,0,5.743-4.538v-1.852a4.648,4.648,0,0,0-.422-1.941C250.586,292.623,248.963,292.585,247.079,292.585Z" transform="translate(-220.27 -264.855)" fill="#ffbd86"/>
          <path id="Trazado_979026" data-name="Trazado 979026" d="M220.9,286c-.736-1.607-1.586-2.615-3.47-2.615a4.722,4.722,0,0,0-1.079.018,4.666,4.666,0,0,0-3.585,4.539s2.741,1.674,7.109-.76C220.443,286.864,220.271,286.473,220.9,286Z" transform="translate(-190.618 -256.627)" fill="#a79ba7"/>
          <path id="Trazado_979027" data-name="Trazado 979027" d="M247.079,282.585a4.676,4.676,0,0,0-1.079.127,4.669,4.669,0,0,1,3.523,3.777,15.485,15.485,0,0,0,1.8-1.18A4.664,4.664,0,0,0,247.079,282.585Z" transform="translate(-220.27 -255.934)" fill="#918291"/>
          <path id="Trazado_979028" data-name="Trazado 979028" d="M42.122,294.551a4.721,4.721,0,0,1-1.079-.018,4.667,4.667,0,0,1-3.585-4.539v-1.852c0-2.2,1.53-2.973,3.585-3.46.346-.082.708-1.1,1.079-1.1a4.483,4.483,0,0,1,4.557,4.557v1.852A4.483,4.483,0,0,1,42.122,294.551Z" transform="translate(-34.225 -256.827)" fill="#fed2a4"/>
          <path id="Trazado_979029" data-name="Trazado 979029" d="M71.774,292.585a4.677,4.677,0,0,0-1.079.127c1.814.43,3.219.84,3.524,2.7a4.692,4.692,0,0,1,.062.76v1.852A4.665,4.665,0,0,1,70.7,302.56a4.664,4.664,0,0,0,5.743-4.538v-1.852a4.648,4.648,0,0,0-.422-1.941C75.281,292.623,73.658,292.585,71.774,292.585Z" transform="translate(-63.877 -264.855)" fill="#ffbd86"/>
          <path id="Trazado_979030" data-name="Trazado 979030" d="M45.591,286c-.736-1.607-1.586-2.615-3.47-2.615a4.721,4.721,0,0,0-1.079.018,4.666,4.666,0,0,0-3.585,4.539s2.741,1.674,7.109-.76C45.138,286.864,44.966,286.473,45.591,286Z" transform="translate(-34.225 -256.627)" fill="#a79ba7"/>
          <path id="Trazado_979031" data-name="Trazado 979031" d="M71.774,282.585a4.677,4.677,0,0,0-1.079.127,4.669,4.669,0,0,1,3.523,3.777,15.482,15.482,0,0,0,1.8-1.18A4.664,4.664,0,0,0,71.774,282.585Z" transform="translate(-63.877 -255.934)" fill="#918291"/>
        </g>
      </g>
      <g id="Grupo_1143785" data-name="Grupo 1143785" transform="translate(0 28.045)">
        <path id="Trazado_979032" data-name="Trazado 979032" d="M191.634,289.827a3.091,3.091,0,0,0-3.051-2.564h-1.467v-.349a5.471,5.471,0,0,0,2.368-4.5v-1.852a5.474,5.474,0,1,0-10.947,0v1.852a5.471,5.471,0,0,0,2.368,4.5v.349h-1.467a3.091,3.091,0,0,0-3.051,2.564l-1.061,6.077a1.462,1.462,0,0,0,1.441,1.714h14.486a1.462,1.462,0,0,0,1.441-1.714Zm-9.11-2.15a5.445,5.445,0,0,0,2.974,0V289.1a1.487,1.487,0,0,1-2.974,0Zm1.487-10.974a3.854,3.854,0,0,1,3.183,1.682c-3.554,2.453-6.047,2-7,1.666A3.861,3.861,0,0,1,184.011,276.7Zm-3.855,5.02a7.1,7.1,0,0,0,1.739.209,10.753,10.753,0,0,0,5.918-2.012,3.863,3.863,0,0,1,.054.639v1.852a3.856,3.856,0,0,1-7.711,0v-.687ZM176.954,296l1.029-5.895a1.476,1.476,0,0,1,1.457-1.224h1.467v.219a3.105,3.105,0,0,0,6.211,0v-.219h1.467a1.476,1.476,0,0,1,1.456,1.224L191.069,296Z" transform="translate(-156.393 -248.433)"/>
        <path id="Trazado_979033" data-name="Trazado 979033" d="M366.937,289.827a3.091,3.091,0,0,0-3.051-2.564H362.42v-.349a5.471,5.471,0,0,0,2.368-4.5v-1.852a5.474,5.474,0,0,0-10.948,0v1.852a5.471,5.471,0,0,0,2.368,4.5v.349h-1.467a3.091,3.091,0,0,0-3.051,2.564l-.124.711a.809.809,0,1,0,1.594.278l.124-.711a1.476,1.476,0,0,1,1.456-1.224h1.467v.219a3.105,3.105,0,1,0,6.211,0v-.219h1.467a1.476,1.476,0,0,1,1.456,1.224L366.372,296H352.257l.28-1.6a.809.809,0,1,0-1.594-.278l-.312,1.785a1.462,1.462,0,0,0,1.441,1.714h14.486A1.462,1.462,0,0,0,368,295.9ZM359.315,276.7a3.854,3.854,0,0,1,3.183,1.682c-3.554,2.453-6.047,2-7,1.666A3.86,3.86,0,0,1,359.315,276.7Zm-3.856,5.02a7.1,7.1,0,0,0,1.739.209,10.753,10.753,0,0,0,5.918-2.012,3.869,3.869,0,0,1,.054.639v1.852a3.855,3.855,0,1,1-7.711,0ZM360.8,289.1a1.487,1.487,0,1,1-2.974,0v-1.423a5.447,5.447,0,0,0,2.974,0Z" transform="translate(-312.784 -248.433)"/>
        <path id="Trazado_979034" data-name="Trazado 979034" d="M16.328,289.827a3.091,3.091,0,0,0-3.051-2.564H11.811v-.349a5.471,5.471,0,0,0,2.368-4.5v-1.852a5.474,5.474,0,1,0-10.947,0v1.852a5.471,5.471,0,0,0,2.368,4.5v.349H4.133a3.091,3.091,0,0,0-3.051,2.564L.022,295.9a1.462,1.462,0,0,0,1.44,1.714H6.888a.809.809,0,1,0,0-1.618H1.648L2.677,290.1a1.476,1.476,0,0,1,1.456-1.224H5.6v.219a3.105,3.105,0,0,0,6.211,0v-.219h1.467a1.476,1.476,0,0,1,1.456,1.224L15.763,296H10.415a.809.809,0,1,0,0,1.618h5.534a1.462,1.462,0,0,0,1.44-1.714ZM8.705,276.7a3.854,3.854,0,0,1,3.183,1.682c-3.554,2.453-6.047,2-7,1.666A3.861,3.861,0,0,1,8.705,276.7Zm-3.855,5.02a7.1,7.1,0,0,0,1.739.209,10.754,10.754,0,0,0,5.918-2.012,3.863,3.863,0,0,1,.054.639v1.852a3.855,3.855,0,1,1-7.711,0v-.687Zm5.343,7.377a1.487,1.487,0,0,1-2.974,0v-1.423a5.445,5.445,0,0,0,2.974,0Z" transform="translate(0 -248.433)"/>
        <path id="Trazado_979035" data-name="Trazado 979035" d="M52.808,28.045H31.778a.809.809,0,0,0,0,1.618h3.967v3.856a3.4,3.4,0,0,0-.524,0,3.359,3.359,0,0,0-3.092,3.137,3.326,3.326,0,0,0,.905,2.5,3.367,3.367,0,0,0,2.441,1.055c.09,0,.18,0,.27-.011v3.856H31.4A1.894,1.894,0,0,0,29.766,45l-2.148,3.72L25.47,45a1.893,1.893,0,0,0-1.635-.944H19.491V39.9a1.347,1.347,0,0,0-1.583-1.327,1.741,1.741,0,0,1-.3.027,1.735,1.735,0,0,1-.134-3.464,1.765,1.765,0,0,1,.433.02,1.36,1.36,0,0,0,1.111-.3,1.34,1.34,0,0,0,.479-1.028V29.663h8.935a.809.809,0,1,0,0-1.618h-26A2.43,2.43,0,0,0,0,30.472V43.25a2.43,2.43,0,0,0,2.427,2.427H4.9a.27.27,0,0,1,.234.135l2.382,4.125a1.349,1.349,0,0,0,2.336,0l2.382-4.125a.27.27,0,0,1,.234-.135H23.835a.27.27,0,0,1,.234.135l2.382,4.125a1.348,1.348,0,0,0,2.336,0l2.382-4.125a.271.271,0,0,1,.234-.135H42.774a.27.27,0,0,1,.234.135l2.381,4.125a1.335,1.335,0,0,0,1.168.674h0a1.335,1.335,0,0,0,1.168-.674l2.382-4.125a.27.27,0,0,1,.234-.135h2.468a2.43,2.43,0,0,0,2.427-2.427V30.472a2.43,2.43,0,0,0-2.427-2.427ZM10.827,45,8.679,48.723,6.531,45A1.893,1.893,0,0,0,4.9,44.059H2.427a.81.81,0,0,1-.809-.809V30.472a.81.81,0,0,1,.809-.809H17.872v3.856a3.407,3.407,0,0,0-.525,0,3.359,3.359,0,0,0-3.092,3.137,3.325,3.325,0,0,0,.905,2.5A3.376,3.376,0,0,0,17.872,40.2v3.856H12.462A1.893,1.893,0,0,0,10.827,45ZM53.618,43.25a.81.81,0,0,1-.809.809H50.34A1.893,1.893,0,0,0,48.705,45l-2.148,3.721L44.409,45a1.893,1.893,0,0,0-1.635-.944H37.363V39.9a1.347,1.347,0,0,0-1.583-1.327,1.741,1.741,0,0,1-.3.027,1.735,1.735,0,0,1-1.731-1.844,1.735,1.735,0,0,1,1.6-1.62,1.758,1.758,0,0,1,.433.02,1.359,1.359,0,0,0,1.11-.3,1.34,1.34,0,0,0,.479-1.028V29.663H52.808a.81.81,0,0,1,.809.809Z" transform="translate(0 -28.045)"/>
      </g>
    </g>
  </g>
</svg>
