<svg xmlns="http://www.w3.org/2000/svg" xmlns:xlink="http://www.w3.org/1999/xlink" width="133.07" height="176.137" viewBox="0 0 133.07 176.137">
  <defs>
    <clipPath id="clip-path">
      <rect id="Rectángulo_405257" data-name="Rectángulo 405257" width="133.07" height="176.137" fill="none"/>
    </clipPath>
  </defs>
  <g id="Grupo_1143905" data-name="Grupo 1143905" transform="translate(0 0)">
    <g id="Grupo_1143904" data-name="Grupo 1143904" transform="translate(0 0)" clip-path="url(#clip-path)">
      <path id="Trazado_979157" data-name="Trazado 979157" d="M49.717,64.416l4.5,29.553H59.6l8.376-43.953c-.823-.064-1.643-.125-2.48-.125H62.8a38.977,38.977,0,0,1-35.308,0H24.8c-.84,0-1.655.061-2.478.125l8.365,43.953H36.08l4.495-29.553h.155l-4.413-8.111h17.66l-4.416,8.111Z" transform="translate(34.52 77.16)" fill="#fff"/>
      <path id="Trazado_979158" data-name="Trazado 979158" d="M78.172,93.892H49.256L40.89,49.939A33.036,33.036,0,0,0,10.314,82.866V98.9h106.8V82.866A33.033,33.033,0,0,0,86.547,49.939Z" transform="translate(15.951 77.234)" fill="#5a6e7e"/>
      <path id="Trazado_979159" data-name="Trazado 979159" d="M27.724,90.073H45.863L41.36,60.52H41.2l4.416-8.111H27.96l4.413,8.111h-.155Z" transform="translate(42.876 81.054)" fill="#01a6b9"/>
      <path id="Trazado_979160" data-name="Trazado 979160" d="M64,43.6c.494-.446.973-.856,1.393-1.169A31.97,31.97,0,0,1,74.5,38.794h.008a5.251,5.251,0,0,1,3.046,1.574,39.113,39.113,0,0,0-.237-6.193l-6.537-1.564a34.18,34.18,0,0,0-1.444-5.1l4.8-4.726a40.317,40.317,0,0,0-1.958-3.746,37.249,37.249,0,0,0-2.348-3.509l-6.445,1.925a32.489,32.489,0,0,0-3.782-3.71l1.783-6.486a39.289,39.289,0,0,0-7.339-4.136l-4.632,4.9a33.136,33.136,0,0,0-5.119-1.322L42.586.184a38.271,38.271,0,0,0-8.414.1L32.6,6.82a32.69,32.69,0,0,0-5.088,1.439L22.777,3.474a38.676,38.676,0,0,0-3.743,1.938,39.244,39.244,0,0,0-3.507,2.343l1.92,6.455a32.642,32.642,0,0,0-3.708,3.779l-6.483-1.78a39.118,39.118,0,0,0-4.138,7.334l4.9,4.635A33.9,33.9,0,0,0,6.7,33.294L.189,35.008a38.655,38.655,0,0,0,.087,8.421l6.542,1.558a34.865,34.865,0,0,0,1.424,5.1L3.464,54.817A36.121,36.121,0,0,0,5.4,58.553q1.1,1.837,2.338,3.512L14.2,60.142a33.064,33.064,0,0,0,3.782,3.708L16.2,70.341a38.656,38.656,0,0,0,7.329,4.125l4.637-4.889a32.009,32.009,0,0,0,5.121,1.311L35,77.41c1.245.12,2.5.173,3.761.173l-.01-.209A35.233,35.233,0,0,1,64,43.6M46.291,51.018A14.659,14.659,0,0,1,26.064,45.6a14.821,14.821,0,0,1,5.052-19.662A14.658,14.658,0,1,1,46.291,51.018" transform="translate(0 0.001)" fill="#01a6b9"/>
      <path id="Trazado_979161" data-name="Trazado 979161" d="M13.091,67.465V70.35a9.111,9.111,0,0,0,9.275,8.918h.548a36.911,36.911,0,0,0,18.855,22.6,38.956,38.956,0,0,0,35.308,0,36.915,36.915,0,0,0,18.852-22.6h.548a9.107,9.107,0,0,0,9.275-8.918V67.465a9.015,9.015,0,0,0-7.293-8.7,35.189,35.189,0,0,0,.244-3.9l-.018-.372a23.331,23.331,0,0,0-.15-2.974v-.005a34.933,34.933,0,0,0-5.964-16.5,35.429,35.429,0,0,0-5.936-6.657,35.07,35.07,0,0,0-22.308-8.689l-.435-.339a1.359,1.359,0,0,0-1.039-.471,2.142,2.142,0,0,0-1.452.769h-.12c-.685-.682-1.309-1.276-1.895-1.765a5.2,5.2,0,0,0-3.043-1.574h-.01a32.142,32.142,0,0,0-9.112,3.631c-.418.311-.891.721-1.385,1.169A35.235,35.235,0,0,0,20.588,54.86l.008.211.015.514a28.52,28.52,0,0,0,.12,3.178,8.975,8.975,0,0,0-7.64,8.7m84.38-3.5a3.672,3.672,0,0,1,2.822,3.5V70.35a3.725,3.725,0,0,1-3.272,3.621,34.913,34.913,0,0,0,.288-4.309A31.915,31.915,0,0,0,97,65.509c.166-.514.331-1.026.471-1.543M27.39,65.01c.112-.708.27-1.4.428-2.088,4.449-3.16,10.151-8.078,12.325-11.953,0,0,36,8.434,49.115,9.4.374.023.728.038,1.072.043a30.568,30.568,0,0,1,1.518,9.247,30.87,30.87,0,0,1-.191,3.346,30.018,30.018,0,0,1-1.148,5.478c-3.973,12.911-16.4,22.361-31.086,22.361S32.3,91.4,28.332,78.486a30.234,30.234,0,0,1-1.148-5.478,30.87,30.87,0,0,1-.191-3.346,30.528,30.528,0,0,1,.4-4.653m-8.844,2.455a3.7,3.7,0,0,1,3.2-3.586c.008.7.031,1.388.048,2.091a30.4,30.4,0,0,0-.26,3.692,35.416,35.416,0,0,0,.29,4.309,3.725,3.725,0,0,1-3.277-3.621Z" transform="translate(20.246 25.182)" fill="#5a6e7e"/>
    </g>
  </g>
</svg>
