<svg xmlns="http://www.w3.org/2000/svg" xmlns:xlink="http://www.w3.org/1999/xlink" width="108" height="108" viewBox="0 0 108 108">
  <defs>
    <filter id="Trazado_904820" x="0" y="0" width="108" height="108" filterUnits="userSpaceOnUse">
      <feOffset dy="3" input="SourceAlpha"/>
      <feGaussianBlur stdDeviation="3" result="blur"/>
      <feFlood flood-opacity="0.161"/>
      <feComposite operator="in" in2="blur"/>
      <feComposite in="SourceGraphic"/>
    </filter>
    <clipPath id="clip-path">
      <rect id="Rectángulo_405258" data-name="Rectángulo 405258" width="66.077" height="64.708" fill="none"/>
    </clipPath>
  </defs>
  <g id="Icono" transform="translate(-615.101 -5000)">
    <g transform="matrix(1, 0, 0, 1, 615.1, 5000)" filter="url(#Trazado_904820)">
      <g id="Trazado_904820-2" data-name="Trazado 904820" transform="translate(9 6)" fill="#ecf4fa">
        <path d="M 45 88.5 C 39.12687683105469 88.5 33.43022537231445 87.35007476806641 28.06830024719238 85.08217620849609 C 22.88852500915527 82.89131164550781 18.23629951477051 79.75458526611328 14.2408504486084 75.75914764404297 C 10.24541282653809 71.76370239257812 7.108687400817871 67.11147308349609 4.917825222015381 61.93170166015625 C 2.649924993515015 56.56977462768555 1.5 50.87312316894531 1.5 45 C 1.5 39.12687683105469 2.649924993515015 33.43022537231445 4.917825222015381 28.06830024719238 C 7.108687400817871 22.88852500915527 10.24541282653809 18.23629951477051 14.2408504486084 14.2408504486084 C 18.23629951477051 10.24541282653809 22.88852500915527 7.108687400817871 28.06830024719238 4.917825222015381 C 33.43022537231445 2.649924993515015 39.12687683105469 1.5 45 1.5 C 50.87312316894531 1.5 56.56977462768555 2.649924993515015 61.93170166015625 4.917825222015381 C 67.11147308349609 7.108687400817871 71.76370239257812 10.24541282653809 75.75914764404297 14.2408504486084 C 79.75458526611328 18.23629951477051 82.89131164550781 22.88852500915527 85.08217620849609 28.06830024719238 C 87.35007476806641 33.43022537231445 88.5 39.12687683105469 88.5 45 C 88.5 50.87312316894531 87.35007476806641 56.56977462768555 85.08217620849609 61.93170166015625 C 82.89131164550781 67.11147308349609 79.75458526611328 71.76370239257812 75.75914764404297 75.75914764404297 C 71.76370239257812 79.75458526611328 67.11147308349609 82.89131164550781 61.93170166015625 85.08217620849609 C 56.56977462768555 87.35007476806641 50.87312316894531 88.5 45 88.5 Z" stroke="none"/>
        <path d="M 45 3 C 39.32871246337891 3 33.82865524291992 4.110054016113281 28.65262985229492 6.299339294433594 C 23.65165710449219 8.414573669433594 19.15968322753906 11.44334411621094 15.301513671875 15.301513671875 C 11.44334411621094 19.15968322753906 8.414573669433594 23.65165710449219 6.299339294433594 28.65262985229492 C 4.110054016113281 33.82865524291992 3 39.32871246337891 3 45 C 3 50.67128753662109 4.110054016113281 56.17134475708008 6.299339294433594 61.34737396240234 C 8.414573669433594 66.34834289550781 11.44334411621094 70.84031677246094 15.301513671875 74.698486328125 C 19.15968322753906 78.55665588378906 23.65165710449219 81.58542633056641 28.65262985229492 83.70066070556641 C 33.82865524291992 85.88994598388672 39.32871246337891 87 45 87 C 50.67128753662109 87 56.17134475708008 85.88994598388672 61.34737396240234 83.70066070556641 C 66.34834289550781 81.58542633056641 70.84031677246094 78.55665588378906 74.698486328125 74.698486328125 C 78.55665588378906 70.84031677246094 81.58542633056641 66.34834289550781 83.70066070556641 61.34737396240234 C 85.88994598388672 56.17134475708008 87 50.67128753662109 87 45 C 87 39.32871246337891 85.88994598388672 33.82865524291992 83.70066070556641 28.65262985229492 C 81.58542633056641 23.65165710449219 78.55665588378906 19.15968322753906 74.698486328125 15.301513671875 C 70.84031677246094 11.44334411621094 66.34834289550781 8.414573669433594 61.34737396240234 6.299339294433594 C 56.17134475708008 4.110054016113281 50.67128753662109 3 45 3 M 45 0 C 69.85281372070312 0 90 20.14718627929688 90 45 C 90 69.85281372070312 69.85281372070312 90 45 90 C 20.14718627929688 90 0 69.85281372070312 0 45 C 0 20.14718627929688 20.14718627929688 0 45 0 Z" stroke="none" fill="#2a5673"/>
      </g>
    </g>
    <g id="Grupo_1143906" data-name="Grupo 1143906" transform="translate(636.024 5018.646)">
      <g id="Grupo_1143906-2" data-name="Grupo 1143906" transform="translate(0 0)" clip-path="url(#clip-path)">
        <path id="Trazado_979162" data-name="Trazado 979162" d="M11.245,59.109A2.948,2.948,0,1,1,8.3,62.056a2.947,2.947,0,0,1,2.948-2.947" transform="translate(-0.456 -3.251)" fill="#d7deed"/>
        <path id="Trazado_979163" data-name="Trazado 979163" d="M54.929,1.383a2.948,2.948,0,1,1-2.948,2.948,2.948,2.948,0,0,1,2.948-2.948" transform="translate(-2.859 -0.076)" fill="#d7deed"/>
        <path id="Trazado_979164" data-name="Trazado 979164" d="M64.206,18.544a4.423,4.423,0,1,1-4.424,4.424,4.423,4.423,0,0,1,4.424-4.424" transform="translate(-3.288 -1.02)" fill="#d7deed"/>
        <path id="Trazado_979165" data-name="Trazado 979165" d="M56.835,42.242a2.946,2.946,0,0,1,0,4.17l-1.043,1.042-8.34,8.34L46.41,56.835a2.948,2.948,0,1,1-4.169-4.168l1.042-1.042,8.34-8.34,1.043-1.043a2.947,2.947,0,0,1,4.169,0" transform="translate(-2.276 -2.276)" fill="#2b2b2b"/>
        <path id="Trazado_979166" data-name="Trazado 979166" d="M64.87,56.533a5.9,5.9,0,1,1-8.34,8.339l-8.724-8.724,8.34-8.34Z" transform="translate(-2.629 -2.629)" fill="#3c3b3d"/>
        <path id="Trazado_979167" data-name="Trazado 979167" d="M51.461,43.123l-8.341,8.34-4.7-4.7a23.748,23.748,0,0,0,8.341-8.341Z" transform="translate(-2.113 -2.113)" fill="#3c3b3d"/>
        <path id="Trazado_979168" data-name="Trazado 979168" d="M41.05,7.691a23.567,23.567,0,1,0,3.645,28.664A23.588,23.588,0,0,0,41.05,7.691" transform="translate(-0.043 -0.043)" fill="#b2dbd8"/>
        <path id="Trazado_979169" data-name="Trazado 979169" d="M35.309,14.46a14.743,14.743,0,1,1-20.85,0,14.745,14.745,0,0,1,20.85,0" transform="translate(-0.558 -0.557)" fill="#d8f2f1"/>
        <path id="Trazado_979170" data-name="Trazado 979170" d="M64.377,34.146A1.474,1.474,0,1,1,62.9,35.621a1.473,1.473,0,0,1,1.475-1.475" transform="translate(-3.46 -1.878)" fill="#fff"/>
        <path id="Trazado_979171" data-name="Trazado 979171" d="M44.1,65.35a1.474,1.474,0,1,1-1.474,1.474A1.474,1.474,0,0,1,44.1,65.35" transform="translate(-2.344 -3.594)" fill="#fff"/>
        <path id="Trazado_979172" data-name="Trazado 979172" d="M25.372,57.549A1.474,1.474,0,1,1,23.9,59.024a1.472,1.472,0,0,1,1.474-1.475" transform="translate(-1.314 -3.165)" fill="#fff"/>
        <path id="Trazado_979173" data-name="Trazado 979173" d="M6.65,1.383A1.474,1.474,0,1,1,5.175,2.856,1.472,1.472,0,0,1,6.65,1.383" transform="translate(-0.285 -0.076)" fill="#fff"/>
        <path id="Trazado_979174" data-name="Trazado 979174" d="M5.089,48.188a1.474,1.474,0,1,1-1.474,1.475,1.473,1.473,0,0,1,1.474-1.475" transform="translate(-0.199 -2.65)" fill="#fff"/>
        <path id="Trazado_979175" data-name="Trazado 979175" d="M51.9,43.816a.734.734,0,0,1-.522-.216L46.687,38.9a.737.737,0,0,1,1.042-1.043l4.7,4.7a.737.737,0,0,1-.522,1.258" transform="translate(-2.556 -2.07)" fill="#fff"/>
        <path id="Trazado_979176" data-name="Trazado 979176" d="M43.078,52.642a.73.73,0,0,1-.521-.216l-4.7-4.695A.737.737,0,0,1,38.9,46.687l4.7,4.7a.738.738,0,0,1-.521,1.259" transform="translate(-2.071 -2.556)" fill="#fff"/>
        <path id="Trazado_979177" data-name="Trazado 979177" d="M60.659,67.294a6.587,6.587,0,0,1-4.692-1.945l-8.724-8.724a.737.737,0,0,1,1.042-1.042l8.723,8.724a5.16,5.16,0,0,0,7.3-7.3l-8.723-8.724a.738.738,0,0,1,1.042-1.044l8.723,8.727a6.635,6.635,0,0,1-4.69,11.325" transform="translate(-2.587 -2.586)" fill="#fff"/>
        <path id="Trazado_979178" data-name="Trazado 979178" d="M44.282,58.393A3.685,3.685,0,0,1,41.676,52.1L52.1,41.677a3.685,3.685,0,1,1,5.211,5.213L46.889,57.315a3.666,3.666,0,0,1-2.606,1.078M54.708,42.072a2.192,2.192,0,0,0-1.563.648L42.719,53.145a2.211,2.211,0,1,0,3.127,3.126L56.272,45.847a2.211,2.211,0,0,0-1.564-3.774" transform="translate(-2.233 -2.233)" fill="#fff"/>
        <path id="Trazado_979179" data-name="Trazado 979179" d="M24.327,48.654A24.327,24.327,0,0,1,7.124,7.126,24.331,24.331,0,0,1,45.287,36.688a24.3,24.3,0,0,1-20.96,11.966m0-47.179A22.854,22.854,0,0,0,8.167,40.487a22.883,22.883,0,0,0,27.771,3.531,22.853,22.853,0,0,0,4.549-35.85A22.707,22.707,0,0,0,24.327,1.475" transform="translate(0 0)" fill="#fff"/>
        <path id="Trazado_979180" data-name="Trazado 979180" d="M24.842,40.324a15.483,15.483,0,1,1,10.946-4.536,15.38,15.38,0,0,1-10.946,4.536m0-29.489a14.006,14.006,0,1,0,9.9,4.1,13.918,13.918,0,0,0-9.9-4.1" transform="translate(-0.515 -0.515)" fill="#fff"/>
        <path id="Trazado_979181" data-name="Trazado 979181" d="M31.352,19.941a.734.734,0,0,1-.522-.216,7.751,7.751,0,0,0-10.961,0,.737.737,0,1,1-1.043-1.041,9.226,9.226,0,0,1,13.047,0,.737.737,0,0,1-.521,1.258" transform="translate(-1.024 -0.879)" fill="#fff"/>
        <path id="Trazado_979182" data-name="Trazado 979182" d="M11.2,65.7a3.685,3.685,0,1,1,3.685-3.686A3.691,3.691,0,0,1,11.2,65.7m0-5.9a2.212,2.212,0,1,0,2.21,2.211A2.216,2.216,0,0,0,11.2,59.8" transform="translate(-0.413 -3.208)" fill="#fff"/>
        <path id="Trazado_979183" data-name="Trazado 979183" d="M54.886,7.974a3.686,3.686,0,1,1,3.685-3.686,3.69,3.69,0,0,1-3.685,3.686m0-5.9A2.212,2.212,0,1,0,57.1,4.287a2.214,2.214,0,0,0-2.212-2.211" transform="translate(-2.816 -0.033)" fill="#fff"/>
        <path id="Trazado_979184" data-name="Trazado 979184" d="M64.163,28.083a5.16,5.16,0,1,1,5.16-5.16,5.166,5.166,0,0,1-5.16,5.16m0-8.845a3.686,3.686,0,1,0,3.685,3.685,3.69,3.69,0,0,0-3.685-3.685" transform="translate(-3.245 -0.977)" fill="#fff"/>
      </g>
    </g>
  </g>
</svg>
