<svg id="Grupo_1143909" data-name="Grupo 1143909" xmlns="http://www.w3.org/2000/svg" xmlns:xlink="http://www.w3.org/1999/xlink" width="249.277" height="266.667" viewBox="0 0 249.277 266.667">
  <defs>
    <clipPath id="clip-path">
      <rect id="Rectángulo_405259" data-name="Rectángulo 405259" width="249.277" height="266.666" fill="none"/>
    </clipPath>
  </defs>
  <g id="Grupo_1143908" data-name="Grupo 1143908" transform="translate(0 0)" clip-path="url(#clip-path)">
    <path id="Trazado_979185" data-name="Trazado 979185" d="M137.01,63.187a14.493,14.493,0,0,1,0,28.986H15.274a14.493,14.493,0,1,1,0-28.986H137.01Z" transform="translate(2.116 171.595)" fill="#7e8c8d"/>
    <path id="Trazado_979186" data-name="Trazado 979186" d="M79.71,56.946a11.595,11.595,0,0,1,0,23.19H21.73a11.595,11.595,0,0,1,0-23.19H79.71Z" transform="translate(27.54 154.647)" fill="#95a5a5"/>
    <path id="Trazado_979187" data-name="Trazado 979187" d="M142.572,62.316H38.225a52.174,52.174,0,1,1,104.347,0" transform="translate(103.807 27.54)" fill="#95a5a5"/>
    <path id="Trazado_979188" data-name="Trazado 979188" d="M17.054,10.141A11.593,11.593,0,1,1,5.461,21.734,11.6,11.6,0,0,1,17.054,10.141" transform="translate(14.83 27.54)" fill="#d7deed"/>
    <path id="Trazado_979189" data-name="Trazado 979189" d="M73,53.826A14.493,14.493,0,1,1,58.506,68.317,14.5,14.5,0,0,1,73,53.826" transform="translate(158.883 146.174)" fill="#d7deed"/>
    <path id="Trazado_979190" data-name="Trazado 979190" d="M46.7,41.345A11.595,11.595,0,1,1,35.105,52.938,11.594,11.594,0,0,1,46.7,41.345" transform="translate(95.334 112.28)" fill="#d7deed"/>
    <path id="Trazado_979191" data-name="Trazado 979191" d="M46.025,24.183H92.4a23.186,23.186,0,1,1-46.372,0" transform="translate(124.989 65.673)" fill="#fcd884"/>
    <path id="Trazado_979192" data-name="Trazado 979192" d="M68.986,3.9a5.8,5.8,0,1,1-5.8,5.8,5.8,5.8,0,0,1,5.8-5.8" transform="translate(171.593 10.591)"/>
    <path id="Trazado_979193" data-name="Trazado 979193" d="M67.426,42.905a5.8,5.8,0,1,1-5.8,5.8,5.8,5.8,0,0,1,5.8-5.8" transform="translate(167.356 116.516)"/>
    <path id="Trazado_979194" data-name="Trazado 979194" d="M54.939,63.187a5.8,5.8,0,1,1-5.793,5.8,5.8,5.8,0,0,1,5.793-5.8" transform="translate(133.465 171.595)"/>
    <path id="Trazado_979195" data-name="Trazado 979195" d="M29.982,33.544a5.8,5.8,0,1,1-5.8,5.8,5.8,5.8,0,0,1,5.8-5.8" transform="translate(65.67 91.095)"/>
    <path id="Trazado_979196" data-name="Trazado 979196" d="M25.3,3.9a5.8,5.8,0,1,1-5.8,5.8,5.8,5.8,0,0,1,5.8-5.8" transform="translate(52.958 10.591)"/>
    <path id="Trazado_979197" data-name="Trazado 979197" d="M12.82,30.423a5.8,5.8,0,1,1-5.8,5.8,5.8,5.8,0,0,1,5.8-5.8" transform="translate(19.064 82.619)"/>
    <path id="Trazado_979198" data-name="Trazado 979198" d="M139.126,97.192H17.389a17.393,17.393,0,0,1,0-34.786H49.27a2.9,2.9,0,1,1,0,5.8H17.389a11.595,11.595,0,1,0,0,23.19H139.126a11.595,11.595,0,0,0,0-23.19H107.249a2.9,2.9,0,1,1,0-5.8h31.877a17.393,17.393,0,0,1,0,34.786" transform="translate(0 169.474)"/>
    <path id="Trazado_979199" data-name="Trazado 979199" d="M81.832,85.152H23.852a14.493,14.493,0,0,1,0-28.986H81.832a14.493,14.493,0,0,1,0,28.986M23.852,61.966a8.7,8.7,0,0,0-8.695,8.691,8.707,8.707,0,0,0,8.695,8.7H81.832a8.695,8.695,0,0,0,0-17.389Z" transform="translate(25.421 152.529)"/>
    <path id="Trazado_979200" data-name="Trazado 979200" d="M144.693,67.332H115.7a2.9,2.9,0,0,1,0-5.8h26a49.273,49.273,0,0,0-98.376,0H69.332a2.9,2.9,0,0,1,0,5.8H40.346a2.9,2.9,0,0,1-2.9-2.9,55.074,55.074,0,1,1,110.147,0,2.9,2.9,0,0,1-2.9,2.9" transform="translate(101.686 25.419)"/>
    <path id="Trazado_979201" data-name="Trazado 979201" d="M71.329,52.388A26.116,26.116,0,0,1,45.245,26.3a2.9,2.9,0,0,1,2.9-2.9H94.519a2.905,2.905,0,0,1,2.9,2.9A26.1,26.1,0,0,1,71.329,52.388M51.25,29.2a20.3,20.3,0,0,0,40.17,0Z" transform="translate(122.871 63.552)"/>
    <path id="Trazado_979202" data-name="Trazado 979202" d="M94.519,24.515H48.147a2.9,2.9,0,1,1,0-5.793H94.519a2.9,2.9,0,1,1,0,5.793" transform="translate(122.871 50.843)"/>
    <path id="Trazado_979203" data-name="Trazado 979203" d="M23.184,214.495a2.9,2.9,0,0,1-2.9-2.9V84.06a2.89,2.89,0,0,1,.851-2.051L95.086,8.056A27.488,27.488,0,0,1,142.015,27.5V37.684a2.895,2.895,0,0,1-5.789,0V27.5A21.7,21.7,0,0,0,99.181,12.154l-73.106,73.1V211.593a2.894,2.894,0,0,1-2.891,2.9" transform="translate(55.079 0)"/>
    <path id="Trazado_979204" data-name="Trazado 979204" d="M18.5,99.208a2.892,2.892,0,0,1-2.9-2.9V32.541a2.895,2.895,0,1,1,5.789,0V96.31a2.893,2.893,0,0,1-2.891,2.9" transform="translate(42.373 80.501)"/>
    <path id="Trazado_979205" data-name="Trazado 979205" d="M27.864,108.57a2.9,2.9,0,0,1-2.9-2.9V41.9a2.9,2.9,0,0,1,5.8,0v63.765a2.9,2.9,0,0,1-2.9,2.9" transform="translate(67.789 105.925)"/>
    <path id="Trazado_979206" data-name="Trazado 979206" d="M19.172,38.346A14.493,14.493,0,1,1,33.663,23.855,14.5,14.5,0,0,1,19.172,38.346m0-23.19a8.7,8.7,0,1,0,8.695,8.7,8.7,8.7,0,0,0-8.695-8.7" transform="translate(12.712 25.419)"/>
    <path id="Trazado_979207" data-name="Trazado 979207" d="M75.118,87.825a17.389,17.389,0,1,1,17.4-17.386,17.412,17.412,0,0,1-17.4,17.386m0-28.982a11.593,11.593,0,1,0,11.6,11.6,11.6,11.6,0,0,0-11.6-11.6" transform="translate(156.762 144.056)"/>
    <path id="Trazado_979208" data-name="Trazado 979208" d="M48.819,69.55A14.493,14.493,0,1,1,63.306,55.055,14.511,14.511,0,0,1,48.819,69.55m0-23.19a8.7,8.7,0,1,0,8.691,8.695,8.709,8.709,0,0,0-8.691-8.695" transform="translate(93.213 110.159)"/>
    <path id="Trazado_979209" data-name="Trazado 979209" d="M55.139,54.737a2.9,2.9,0,0,1-2.895-2.895v-13.6a2.9,2.9,0,1,1,5.793,0v13.6a2.894,2.894,0,0,1-2.9,2.895" transform="translate(141.878 95.985)"/>
    <path id="Trazado_979210" data-name="Trazado 979210" d="M48.141,46.118a2.9,2.9,0,0,1-2.5-4.358l4.136-7.1a2.9,2.9,0,1,1,5.005,2.924L50.645,44.68a2.9,2.9,0,0,1-2.5,1.438" transform="translate(122.869 90.225)"/>
    <path id="Trazado_979211" data-name="Trazado 979211" d="M65.121,46.118A2.907,2.907,0,0,1,62.61,44.68L58.47,37.587a2.9,2.9,0,0,1,5.012-2.924l4.139,7.1a2.9,2.9,0,0,1-1.044,3.965,2.872,2.872,0,0,1-1.457.394" transform="translate(157.719 90.225)"/>
  </g>
</svg>
